<svg viewBox="0 0 100 100" xmlns="http://www.w3.org/2000/svg" xmlns:xlink="http://www.w3.org/1999/xlink">
	<defs>
		<symbol id="freddys-logo" viewBox="0 0 1000 211">
			<path id="f" class="letter" d="m98.2 81.3c-8.8 1.4-18.6-3.1-20.5-15-2.8-17.1 13.7-16.8 12.1-26.7-0.7-3.9-4-7.6-11-7.9-1.9-0.1-4 0-6 0.3-9.3 1.5-18.7 8.6-16.9 19.3l6.4 39.4 21.5-3.5 0.4 2.1-21.6 3.5 17.1 104.8 29.7-4.8 0.4 2-92.4 15.1-0.3-2 29.8-4.9-17.1-104.9-29.8 4.9-0.3-2 29.8-4.9-2.4-14.6c-4.6-28 19.3-47.3 43.1-51.1 27.2-4.5 41.3 10.5 43.7 25.3 1.9 11.7-3.6 23.6-15.7 25.6z"/>
			<path id="r" class="letter" d="m229.3 61.2c-9.7 1.1-18-5.3-19.1-15-1.7-15.3 12.9-13.8 11.6-24.8-0.5-4.8-4.8-7.9-9.8-7.3-1 0.1-2 0.4-3.4 0.8-22 7.5-31 39.4-28.6 59.9l12.1 107.2 29.9-3.4 0.3 2.1-93 10.6-0.2-2.1 29.9-3.4-18.2-161.5-30 3.4-0.2-2.1 63-7.1 4.5 39.9c2.8-19.6 13.4-44.3 35.7-46.8 18.6-2.1 29.5 10.9 31.2 25.4 1.1 12-3.2 22.4-15.7 24.2z"/>
			<path id="e" fill-rule="evenodd" class="letter" d="m397.4 81.3l-108.5 6.6 0.9 15.6c1.9 31.4 6.3 70.6 45.4 68.2l2-0.1c11.8-1.4 35.6-7.4 34.8-20.5-0.8-13.3-18.3-11-19.3-27.2-0.7-11.7 7.8-18.5 16.8-19 9.7-0.6 19.9 5.9 20.9 21.9 1.6 26.4-24.5 44.1-52.6 46.8l-2.9 0.2c-36.8 2.2-79-20.5-82.6-80.6-2.6-42.6 25-80.2 59.5-88.3 3-0.8 6.1-1.2 9.7-1.5h0.8c50-3 72.5 30.9 75.3 76.8 0 0.2 0 0.5-0.2 1.1zm-37.7-31.3c-3.9-27.1-7.2-46.4-37.1-44.5h-0.4c-3.3 0.2-6.8 0.6-10.1 1.4-20.7 5.3-23.8 23.4-24 47.4-0.3 9.8 0.2 20.9 0.6 31.5l74.3-4.5c-0.6-10.6-1.9-21.6-3.3-31.3z"/>
			<path id="d" fill-rule="evenodd" class="letter" d="m476.3 167.3l-83.4 0.3v-2.1l30.1-0.1-0.6-162.5-30.1 0.1-0.1-2.1 83.4-0.3c42.5-0.2 78.2 35.7 78.3 83 0.2 47.3-35.2 83.5-77.6 83.7zm40.8-100.8c-0.2-30.5-5.3-64-41.5-63.9l-19.9 0.1 0.6 162.6 20-0.1c36.1-0.2 41-33.9 40.9-63.9l-0.1-17.5z"/>
			<path id="d-2" fill-rule="evenodd" class="letter" d="m626.3 171l-83.2-4.6 0.1-2.1 30.1 1.7 8.9-162.2-30-1.7 0.1-2.1 83.2 4.6c42.3 2.4 75.8 40.3 73.2 87.5-2.6 47.2-40 81.2-82.4 78.9zm46.6-98.2c1.7-30.3-1.4-64.1-37.5-66.1l-19.9-1.1-9 162.2 19.9 1.1c36.1 2 43-31.4 44.6-61.3l1-17.5z"/>
			<path id="y" class="letter" d="m856.3 27.3l-78.4 134.3c-8.4 14.5-26.1 21.5-37.9 20.1-19.2-2.2-33.1-16.4-30.8-36.4 1.5-12.7 9.6-23.3 22-21.8 8.9 1 17.1 8 15.7 20-1.2 10-6.2 11.7-13.4 15.9-3.3 1.9-5.2 3.6-5.6 7.5-1 8.1 4.9 11.9 12.1 12.8 11.4 1.3 28-5.2 35.9-19.2l3.9-6.3-43.9-140.8-30-3.4 0.2-2.1 89.7 10.4-0.2 2-26.1-3 31.4 100.8 53.2-91-26.3-3 0.3-2.1 58.4 6.7-0.2 2.1z"/>
			<path id="quote" class="letter" d="m863.1 82.3l0.3-1.9c10.5 1.6 14.9-3.6 15.7-9.1 1-6.2-1.8-7.5-5.7-10.8-3.5-3.1-7.8-8-6.5-16.8 1.8-12 11.6-16.6 20.4-15.2 12.6 1.9 17.4 12.9 15.6 24.5-2.3 15.4-12.7 32.8-39.8 29.3z"/>
			<path id="s" class="letter" d="m922.6 206.6c-3.1-0.6-5.9-1.3-8.9-2.2-23.9-7.1-43.1-24.8-39-47.7 2.9-15.8 13.7-21.1 23.3-19.3 8.8 1.6 16.5 9.3 14.5 20.8-2.9 15.8-18.7 10.8-21.2 25-1.5 8.2 14 18.2 31.6 21.3 19.1 3.5 40.4-1.1 44.6-24.3 2.1-11.7-2.2-24.5-12.8-32.2l-35.6-24.4c-15.6-10.6-22.8-28-19.4-47.1 4.4-24.6 23.7-37.9 46.7-37.7 3.2 0.1 6.1 0.4 9.1 1 17.8 3.2 23.9 11.9 30.6 13.1 4.7 0.9 9.1 0.2 10.8-3.5l1.7 0.3-9 50-2.3-0.4c4.9-27.3-10.2-53.5-33-57.6-3-0.6-5.9-0.9-8.3-0.7-12.5 0.1-25 6.3-27.3 19.2-2.9 15.8 9.8 29.1 21.4 36.9l35.4 24.4c14 10 22.4 26.7 19.3 43.9-6.4 35.9-40.3 47-72.2 41.2z"/>
		</symbol>
	</defs>
</svg>
